# xmcd CD database file
#
# Track frame offsets:
#	150
#	22297
#	40732
#
# Disc length: 837 seconds
#
# Revision: 0
# Processed by: cddbd v1.5.1PL0 Copyright (c) Steve Scherf et al.
# Submitted via: CDex 1.51
#
DISCID=20034303
DTITLE=田中秀典 - 落書きみたいな恋の歌
DYEAR=2002
DGENRE=Rock
TTITLE0=落書きみたいな恋の歌
TTITLE1=Gentle Snow
TTITLE2=落書きみたいな恋の歌(Instrumental)
EXTD=YEAR: 2002
EXTT0=
EXTT1=
EXTT2=
PLAYORDER=
